<?xml version="1.0" encoding="UTF-8" standalone="no"?>
<!DOCTYPE svg PUBLIC "-//W3C//DTD SVG 1.1//EN"
 "http://www.w3.org/Graphics/SVG/1.1/DTD/svg11.dtd">
<!-- Generated by graphviz version 2.47.0 (20210316.0004)
 -->
<!-- Title: dbml Pages: 1 -->
<svg width="651pt" height="268pt"
 viewBox="0.00 0.00 650.70 268.22" xmlns="http://www.w3.org/2000/svg" xmlns:xlink="http://www.w3.org/1999/xlink">
<g id="graph0" class="graph" transform="scale(1 1) rotate(0) translate(4 264.22)">
<title>dbml</title>
<!-- post -->
<g id="post" class="node">
<title>post</title>
<ellipse fill="none" stroke="black" stroke-width="0" cx="153.44" cy="-130.11" rx="153.38" ry="130.22"/>
<polygon fill="#1d71b8" stroke="transparent" points="47.44,-160.11 47.44,-220.11 260.44,-220.11 260.44,-160.11 47.44,-160.11"/>
<polygon fill="none" stroke="#29235c" points="47.44,-160.11 47.44,-220.11 260.44,-220.11 260.44,-160.11 47.44,-160.11"/>
<text text-anchor="start" x="61.46" y="-181.31" font-family="Helvetica,sans-Serif" font-weight="bold" font-size="32.00" fill="#ffffff"> &#160;&#160;&#160;&#160;&#160;&#160;post &#160;&#160;&#160;&#160;&#160;&#160;</text>
<polygon fill="#e7e2dd" stroke="transparent" points="47.44,-100.11 47.44,-160.11 260.44,-160.11 260.44,-100.11 47.44,-100.11"/>
<polygon fill="none" stroke="#29235c" points="47.44,-100.11 47.44,-160.11 260.44,-160.11 260.44,-100.11 47.44,-100.11"/>
<text text-anchor="start" x="58.44" y="-121.31" font-family="Helvetica,sans-Serif" font-weight="bold" font-size="32.00" fill="#29235c">id</text>
<text text-anchor="start" x="83.33" y="-121.31" font-family="Helvetica,sans-Serif" font-size="32.00" fill="#29235c"> &#160;&#160;&#160;</text>
<text text-anchor="start" x="158.78" y="-121.31" font-family="Helvetica,sans-Serif" font-style="italic" font-size="32.00" fill="#29235c">text</text>
<text text-anchor="start" x="210.35" y="-121.31" font-family="Helvetica,sans-Serif" font-size="32.00" fill="#29235c"> </text>
<text text-anchor="start" x="219.24" y="-121.31" font-family="Helvetica,sans-Serif" font-weight="bold" font-size="32.00" fill="#29235c">(!)</text>
<polygon fill="#e7e2dd" stroke="transparent" points="47.44,-40.11 47.44,-100.11 260.44,-100.11 260.44,-40.11 47.44,-40.11"/>
<polygon fill="none" stroke="#29235c" points="47.44,-40.11 47.44,-100.11 260.44,-100.11 260.44,-40.11 47.44,-40.11"/>
<text text-anchor="start" x="58.2" y="-60.31" font-family="Helvetica,sans-Serif" font-size="32.00" fill="#29235c">user_id &#160;&#160;&#160;</text>
<text text-anchor="start" x="198.15" y="-61.31" font-family="Helvetica,sans-Serif" font-style="italic" font-size="32.00" fill="#29235c">text</text>
<polygon fill="none" stroke="#29235c" stroke-width="2" points="45.94,-39.11 45.94,-221.11 260.94,-221.11 260.94,-39.11 45.94,-39.11"/>
</g>
<!-- user -->
<g id="user" class="node">
<title>user</title>
<ellipse fill="none" stroke="black" stroke-width="0" cx="492.79" cy="-130.11" rx="149.81" ry="130.22"/>
<polygon fill="#1d71b8" stroke="transparent" points="388.79,-160.11 388.79,-220.11 596.79,-220.11 596.79,-160.11 388.79,-160.11"/>
<polygon fill="none" stroke="#29235c" points="388.79,-160.11 388.79,-220.11 596.79,-220.11 596.79,-160.11 388.79,-160.11"/>
<text text-anchor="start" x="399.43" y="-181.31" font-family="Helvetica,sans-Serif" font-weight="bold" font-size="32.00" fill="#ffffff"> &#160;&#160;&#160;&#160;&#160;&#160;user &#160;&#160;&#160;&#160;&#160;&#160;</text>
<polygon fill="#e7e2dd" stroke="transparent" points="388.79,-100.11 388.79,-160.11 596.79,-160.11 596.79,-100.11 388.79,-100.11"/>
<polygon fill="none" stroke="#29235c" points="388.79,-100.11 388.79,-160.11 596.79,-160.11 596.79,-100.11 388.79,-100.11"/>
<text text-anchor="start" x="399.79" y="-121.31" font-family="Helvetica,sans-Serif" font-weight="bold" font-size="32.00" fill="#29235c">id</text>
<text text-anchor="start" x="424.68" y="-121.31" font-family="Helvetica,sans-Serif" font-size="32.00" fill="#29235c"> &#160;&#160;&#160;</text>
<text text-anchor="start" x="495.13" y="-121.31" font-family="Helvetica,sans-Serif" font-style="italic" font-size="32.00" fill="#29235c">text</text>
<text text-anchor="start" x="546.7" y="-121.31" font-family="Helvetica,sans-Serif" font-size="32.00" fill="#29235c"> </text>
<text text-anchor="start" x="555.59" y="-121.31" font-family="Helvetica,sans-Serif" font-weight="bold" font-size="32.00" fill="#29235c">(!)</text>
<polygon fill="#e7e2dd" stroke="transparent" points="388.79,-40.11 388.79,-100.11 596.79,-100.11 596.79,-40.11 388.79,-40.11"/>
<polygon fill="none" stroke="#29235c" points="388.79,-40.11 388.79,-100.11 596.79,-100.11 596.79,-40.11 388.79,-40.11"/>
<text text-anchor="start" x="399.79" y="-60.31" font-family="Helvetica,sans-Serif" font-size="32.00" fill="#29235c">name &#160;&#160;&#160;</text>
<text text-anchor="start" x="534.22" y="-61.31" font-family="Helvetica,sans-Serif" font-style="italic" font-size="32.00" fill="#29235c">text</text>
<polygon fill="none" stroke="#29235c" stroke-width="2" points="387.79,-39.11 387.79,-221.11 597.79,-221.11 597.79,-39.11 387.79,-39.11"/>
</g>
<!-- post&#45;&gt;user -->
<!-- post&#45;&gt;user -->
<g id="edge2" class="edge">
<title>post:e&#45;&gt;user:w</title>
<path fill="none" stroke="#29235c" stroke-width="3" d="M261.44,-70.11C320.09,-70.11 325.2,-123.5 377.78,-129.55"/>
<polygon fill="#29235c" stroke="#29235c" stroke-width="3" points="377.61,-133.05 387.79,-130.11 378,-126.06 377.61,-133.05"/>
<text text-anchor="middle" x="396.69" y="-130.11" font-family="Helvetica,sans-Serif" font-size="32.00" fill="#29235c">1</text>
<text text-anchor="middle" x="255.22" y="-41.31" font-family="Helvetica,sans-Serif" font-size="32.00" fill="#29235c">*</text>
</g>
</g>
</svg>
